<svg id="Layer_1" data-name="Layer 1" xmlns="http://www.w3.org/2000/svg" viewBox="0 0 2525.11 847.68"><defs><style>.cls-1{fill:#01488a;}.cls-2{fill:#f0ac01;}</style></defs><path class="cls-1" d="M2652.33,519.22l-128.43-.12c-18,0-36-.07-54,.06-3.22,0-4.69-.41-4.64-4.19.14-10.23-.05-10.12,10.39-10.73,9.84-.58,19.53-2.12,28.48-6.57,10.13-5,13.39-11.58,11.81-22.71-1.64-11.59-5.44-22.53-9.55-33.42q-14.49-38.4-28.72-76.91c-1.11-3-2.49-3.95-5.65-3.95q-85.72.15-171.45.05c-2.59,0-4.54,0-5.68,3.23-11.49,32.88-24.19,65.33-35,98.46a70.55,70.55,0,0,0-2.94,13.1c-1.44,11.45,2.86,19.25,13.56,23.86,9.19,4,19,4.81,28.82,5,8.16.19,7.87.2,8.26,8.21.25,5-.85,6.64-6.32,6.61q-75-.36-150,0c-4.67,0-6.34-.85-6.06-5.86.46-8.62.12-8.79,9-9,28.37-.54,48.94-13,60.73-39.14,2.12-4.69,4.47-9.29,6.31-14.08q33.49-87.35,66.83-174.74,45.11-118.34,90-236.74c1.35-3.57,3-4.73,6.75-4.62,10.16.28,20.33.32,30.48,0,3.89-.12,5.43,1.3,6.71,4.72q64,170.23,128.24,340.39c9.08,24,17.31,48.42,28,71.85,5.26,11.53,11.59,22.44,20.43,31.69,14.59,15.28,32.69,21.51,53.55,20.55ZM2386.52,114.5c-27,73.33-53.55,145.58-80.31,218.31h154c5.9,0,5.91,0,3.91-5.5q-22.7-62.15-45.39-124.3C2408.14,173.92,2397.56,144.82,2386.52,114.5Z" transform="translate(-127.22 -35.05)"/><path class="cls-1" d="M1109.44,526.2c-4.52-1.94-9.41-1.25-14.09-1.64-28.07-2.37-55.83-6.87-83.61-11.3-3.23-.52-3.46-2.17-3.58-4.71q-1.78-36.62-3.7-73.22c-.35-6.81-.59-13.62-1.06-20.42-.18-2.64.67-3.5,3.32-3.38,4.49.21,9.67-1.27,13.3.52s2.62,7.64,3.9,11.63c7.7,24.14,22.61,42.74,45,54.26,37.2,19.19,76.17,22,115.44,7.14,36.16-13.67,57.68-46,57.08-83.26-.31-18.86-8.14-34.67-20.65-48.38-14.56-15.94-32.4-27.58-51.22-37.69-25.76-13.84-51.89-27-77.67-40.81-18.08-9.68-35.23-20.77-50.2-35-18.22-17.32-28.67-38.36-31.38-63.32-2.61-24.13-1.54-47.83,8.66-70.33,12.83-28.34,35.63-45.72,63.87-56.84,23-9.06,47.13-13,71.69-14,41.65-1.77,82.81,2.52,123.59,10.94,2.87.6,3.63,1.9,3.77,4.65,1.1,23.25,2.36,46.49,3.57,69.73.36,7,.57,14,1.09,20.91.22,2.92-.74,3.76-3.56,3.6-4.49-.24-9.75,1.28-13.27-.59s-2.61-7.7-3.87-11.74c-11.67-37.51-37.93-58.73-75.55-66.59-25.16-5.25-50.33-5.56-74.57,4.81-23.43,10-40.49,26.28-46.93,51.48-7.38,28.87,2.16,52.56,24.23,71.8,17.88,15.58,38.83,26.16,59.94,36.38,30.23,14.64,60.5,29.17,88.5,47.9a261.38,261.38,0,0,1,27.41,20.81c28.07,24.7,40.35,56.1,40.06,93-.29,35.82-12,66.7-39.2,90.92-18,16-39.2,26.05-62.13,32.73a246.32,246.32,0,0,1-53,9.14c-1.07.07-2.39-.44-3.13.89Z" transform="translate(-127.22 -35.05)"/><path class="cls-2" d="M775.47,526.2c-5.6-2.23-11.64-1.87-17.45-2.77q-95.29-14.73-140.44-99.68c-16.44-30.87-25.34-64.12-30.05-98.58a468.78,468.78,0,0,1-1.88-107.46c3-32.43,9.54-64.05,24.17-93.52,21.84-44,57.61-70.26,104.87-81.93,29.59-7.3,59.66-8.09,89.86-6.54,36.37,1.88,72,8.53,107.21,17.55,4.79,1.23,6.5,3.15,6.75,8.29,1.63,33.54,3.62,67.06,5.76,100.56.29,4.56-.91,5.6-5.29,5.51-12.13-.24-12.1,0-15.64-11.6C896.89,135,887.27,115.59,872,99.4c-22.2-23.56-50.26-34.12-82-36.06-20.83-1.27-41.28.72-60.6,9.37-27.78,12.45-44.89,34.61-56.19,62-10,24.21-14.47,49.67-16.7,75.58a546.39,546.39,0,0,0-1,81.72c2.57,40.55,9.15,80.2,27.69,117,23.83,47.28,62.2,74.74,114.56,82.41,41.65,6.11,82.33,2.17,121.66-13.4,1.5-.59,2.93-1.58,5-1.22,0,9.13-.12,18.27.07,27.4.06,2.75-1.57,3.31-3.48,4a311,311,0,0,1-68.07,15.06c-8.43.92-16.92,1.41-25.38,2.09-.81.07-1.69,0-2.09.94Z" transform="translate(-127.22 -35.05)"/><path class="cls-1" d="M1972.38,526.2c-5.24-2.23-10.93-1.87-16.4-2.71-69.1-10.6-117.39-48.48-146.62-111.28-15-32.12-22.58-66.18-26-101.27a473.6,473.6,0,0,1,1.15-105.51c4.52-36.26,13.8-71,34.85-101.7,21.72-31.64,52.14-50.59,88.75-60.42,31.42-8.43,63.46-9.2,95.7-7.42,35.71,2,70.64,8.58,105.24,17.34,4.76,1.2,6.5,3,6.75,8.11,1.63,33.71,3.66,67.4,5.77,101.08.26,4.28-1,5.59-5.1,5.1s-9.29,1.61-12.12-.84c-2.54-2.2-2.6-7.25-3.76-11-9-29.59-24.22-54.92-50.48-72.56-18.44-12.39-39.11-18.14-61-19.64-19.26-1.31-38.28.07-56.57,7-28.17,10.6-46.63,31.12-59,57.73-11.4,24.57-16.57,50.74-19.08,77.48a544.93,544.93,0,0,0,.07,105.08c3.68,37.11,11.71,73.1,30.28,106,24.12,42.71,61,67.2,109.2,74.51,42.29,6.42,83.65,2.53,123.57-13.55.92-.38,1.86-.72,2.81-1a5.15,5.15,0,0,1,1.37.16c0,9.24-.07,18.52.05,27.81,0,2.57-1.73,2.9-3.42,3.49a306.1,306.1,0,0,1-68,15.08c-8.28.9-16.6,1.41-24.89,2.09-.8.07-1.7-.08-2,1Z" transform="translate(-127.22 -35.05)"/><path class="cls-2" d="M392.54,265.5c13,2.65,25.9,5.87,38.16,11.18,40.68,17.62,63.37,48.59,68.92,92.31,2.62,20.65,2,41.16-3.63,61.28-10.12,36-34.51,58.54-68.4,72.08-22,8.79-45,12.9-68.52,14.85-35.76,3-71.61,1.65-107.43,1.8-39.49.17-79,0-118.48.12-4.26,0-6.15-.67-5.92-5.54.41-8.68.09-8.71,9-9.05a139.72,139.72,0,0,0,19.34-1.95c18.21-3.24,28.11-14.56,31.85-32a109.47,109.47,0,0,0,2.18-23.28q-.08-169.37-.12-338.73a86.62,86.62,0,0,0-2.79-20.68c-4.32-17.59-15.8-27-33.42-29.72a164,164,0,0,0-21.9-1.62c-2.81,0-4.08-.53-4.11-3.81-.1-10.49-.26-10.49,10.28-10.49,62.49,0,125-.18,187.47.22,28.05.18,55.88,3,82.51,12.8,37.35,13.72,61.46,39,67.36,79.17,4.63,31.53,1.37,61.78-18.43,88.3-14.57,19.53-34.93,30.85-57.34,39-2.26.83-4.53,1.62-6.8,2.43Zm-139,103.55q0,30.43,0,60.86c0,10.48,0,20.94.88,31.4,1.48,17.93,9,26,26.94,28,6.12.7,12.27,1.24,18.41,1.5,23.09,1,46-.29,68.13-7.55,30.17-9.89,52.06-28.46,61.3-59.67,5.77-19.51,5.59-39.44,2.16-59.29-5.64-32.68-23.24-56.34-54.14-69.53-17-7.26-35-10.46-53.31-12.07-21.62-1.9-43.29-1-64.94-1.38-4.26-.08-5.6.83-5.56,5.38C253.66,314.18,253.54,341.62,253.54,369.05Zm0-188.39h0c0,22.6.11,45.21-.1,67.82,0,4.24,1.25,5.25,5.31,5.12,9.82-.29,19.66,0,29.49-.12,20.48-.33,40.94-.82,60.85-6.58,31.38-9.08,51.56-28.68,57.88-61.22a128.18,128.18,0,0,0-.46-51c-5.73-27.56-21.54-46.85-48.21-56.3s-54.11-10.22-81.81-6.21c-10.87,1.57-17.46,8.3-20,18.94-2.41,10.09-2.84,20.39-2.89,30.69C253.51,141.43,253.57,161,253.57,180.66Z" transform="translate(-127.22 -35.05)"/><path class="cls-1" d="M1444.94,519.1c-29.66,0-59.32-.07-89,.08-4.07,0-5.87-.48-5.63-5.26.45-9.17.11-9.27,9.48-9.46a102.92,102.92,0,0,0,17.89-1.57c20.55-4,30.66-15.11,33.76-36.41a165.85,165.85,0,0,0,1.37-23.87q.06-161.86,0-323.73A160.82,160.82,0,0,0,1411.6,96c-3.6-25.23-16.48-37.22-42-38.75-5.32-.32-10.64-.62-16-.73-2.24,0-3.1-.58-3.22-3.07-.52-11.22-.62-11.21,10.45-11.21,63.32,0,126.64-.17,190,.17,29.36.15,58.58,2.41,86.68,12,41.83,14.27,63.68,44.34,68.83,87.35,2.4,20.09,2.3,40.17-2.3,60-8.17,35.3-29.88,58.87-63.3,72.15C1619,282.53,1596.17,286,1573,287.7c-30.28,2.16-60.62,1.45-90.94,1.39-4.51,0-5.48,1.28-5.46,5.58.15,49.55.05,99.1.14,148.65,0,9.46.35,18.93,2.55,28.24,4.49,19,15.62,29.08,35,31.7a135.89,135.89,0,0,0,20.93,1.23c3.38-.06,4.13,1.1,4.12,4.29,0,10.32.09,10.32-10.45,10.32Zm31.77-343.9c0,29.85.08,55.44-.08,81,0,3.8.82,5.18,4.92,5.08,11.65-.29,23.31,0,35-.12,21.66-.16,43.27-.86,64.39-6.45,31-8.21,50.53-27.35,56.7-59.31a155.19,155.19,0,0,0,.58-56c-5.89-34.41-25.52-56.57-59.8-64.9-24.75-6-49.94-5.59-75-2.87-16.21,1.77-22,7.8-24.71,22.14a86.75,86.75,0,0,0-1.28,11.37C1476.07,129.93,1477,154.7,1476.71,175.2Z" transform="translate(-127.22 -35.05)"/><path class="cls-1" d="M164.49,854.41A72.41,72.41,0,0,0,201.83,865c21.37,0,33.94-11.24,33.94-27.75,0-15.11-8.77-24-30.6-32.25-26.41-9.44-42.8-23.43-42.8-46.23,0-25.37,20.94-44.2,52.46-44.2,16.43,0,28.64,3.84,35.7,7.87l-5.84,17.26c-5.15-3.08-16-7.74-30.55-7.74-22.23,0-30.62,13.27-30.62,24.38,0,15.13,9.84,22.59,32.17,31.29,27.45,10.84,41.28,24.11,41.28,48,0,25-18.29,47-56.63,47-15.65,0-32.71-4.76-41.34-10.63Z" transform="translate(-127.22 -35.05)"/><path class="cls-1" d="M285.55,719.06a227.28,227.28,0,0,1,40.22-3.25c20.52,0,35.69,4.78,45.36,13.54,8.78,7.8,14.23,19.61,14.23,34.12,0,14.78-4.37,26.43-12.58,34.88-11.15,11.92-29,17.85-49.45,17.85-6.34,0-12.08-.23-16.9-1.51v65.37H285.55Zm20.88,78.49c4.65,1.36,10.47,1.83,17.33,1.83,25.34,0,40.65-12.53,40.65-34.79,0-21.58-15.28-32.13-38.21-32.13a100.78,100.78,0,0,0-19.77,1.66Z" transform="translate(-127.22 -35.05)"/><path class="cls-1" d="M497,803.65H434.28v58.88h70.16v17.53H413.27v-163h87.47v17.53H434.28v51.62H497Z" transform="translate(-127.22 -35.05)"/><path class="cls-1" d="M557.64,828.84l-16.72,51.22H519.25l55-163h25.13l55.26,163H632.33L615,828.84Zm53.14-16.46-16-46.9c-3.51-10.67-5.94-20.38-8.34-29.74h-.56c-2.32,9.53-4.84,19.48-8,29.45l-15.94,47.19Z" transform="translate(-127.22 -35.05)"/><path class="cls-1" d="M678.31,717.08h20.88v78.56h.75c4.25-6.32,8.73-12,12.77-17.32l49.43-61.24H788l-58.51,69.27,63.15,93.71H767.88l-53.17-79.94L699.19,818v62.07H678.31Z" transform="translate(-127.22 -35.05)"/><path class="cls-1" d="M829.43,717.08v163h-21v-163Z" transform="translate(-127.22 -35.05)"/><path class="cls-1" d="M865.8,880.06v-163h23l51.83,82.37c11.83,19.12,21.23,36.25,28.88,53.07l.53-.25c-1.9-21.76-2.28-41.63-2.28-66.88V717.08h19.68v163H966.2l-51.44-82.61c-11.14-18.26-22-36.85-30.1-54.57l-.71.25c1.24,20.65,1.53,40.29,1.53,67.24v69.69Z" transform="translate(-127.22 -35.05)"/><path class="cls-1" d="M1147.11,872.74a146.09,146.09,0,0,1-49.76,9c-24.53,0-44.76-6.25-60.51-21.55-13.94-13.51-22.53-35.14-22.5-60.51.07-48.61,33.26-84.2,87.48-84.2,18.7,0,33.53,4.14,40.48,7.48l-5.22,17.17c-8.62-4-19.42-7-35.75-7-39.25,0-65,24.61-65,65.44,0,41.29,24.6,65.75,62.46,65.75,13.66,0,22.94-1.94,27.77-4.39V811.36h-32.75V794.52h53.29Z" transform="translate(-127.22 -35.05)"/><path class="cls-1" d="M1229.75,717.08h87.15v17.53h-66.14v54.27h61.11V806.3h-61.11v73.76h-21Z" transform="translate(-127.22 -35.05)"/><path class="cls-1" d="M1485.05,796.94c0,55.92-33.83,85.78-75.08,85.78-42.92,0-72.73-33.46-72.73-82.72,0-51.64,31.73-85.58,74.93-85.58C1456.36,714.42,1485.05,748.51,1485.05,796.94Zm-125.71,2.57c0,34.88,18.8,66.09,51.77,66.09,33.19,0,51.84-30.71,51.84-67.74,0-32.44-16.81-66.32-51.58-66.32S1359.34,763.86,1359.34,799.51Z" transform="translate(-127.22 -35.05)"/><path class="cls-1" d="M1512.07,719.31c10.61-2.14,25.83-3.5,40.2-3.5,22.18,0,36.8,4.25,46.89,13.41,8,7.14,12.69,18.24,12.69,31,0,21.42-13.57,35.65-30.5,41.53v.6c12.34,4.36,19.8,16.11,23.73,33,5.32,22.78,9.15,38.36,12.44,44.73h-21.67c-2.55-4.71-6.2-18.61-10.63-39-4.81-22.32-13.56-31-32.48-31.61H1533v70.63h-20.89ZM1533,793.5h21.35c22.37,0,36.54-12.26,36.54-30.94,0-21.18-15.16-30.37-37.21-30.41-10.13,0-17.14.93-20.68,1.86Z" transform="translate(-127.22 -35.05)"/><path class="cls-1" d="M1718.39,828.84l-16.72,51.22H1680l55-163h25.13l55.27,163h-22.35l-17.33-51.22Zm53.14-16.46-16-46.9c-3.51-10.67-5.94-20.38-8.33-29.74h-.57c-2.31,9.53-4.84,19.48-8,29.45l-15.94,47.19Z" transform="translate(-127.22 -35.05)"/><path class="cls-1" d="M1839.05,880.06v-163h23l51.83,82.37c11.83,19.12,21.23,36.25,28.88,53.07l.53-.25c-1.9-21.76-2.28-41.63-2.28-66.88V717.08h19.68v163h-21.22L1888,797.45c-11.14-18.26-22-36.85-30.1-54.57l-.72.25c1.25,20.65,1.54,40.29,1.54,67.24v69.69Z" transform="translate(-127.22 -35.05)"/><path class="cls-1" d="M2018,717.08v163h-21v-163Z" transform="translate(-127.22 -35.05)"/><path class="cls-1" d="M2191,808.49c-1.26-22.64-2.72-50.15-2.58-70.29h-.66c-5.57,18.91-12.29,39.45-20.36,61.78l-28.58,79.07H2123l-26.36-77.62c-7.71-23-14-43.93-18.53-63.23h-.56c-.57,20.31-1.62,47.44-3.18,71.9l-4.3,70H2050.2l11.27-163h26.69L2115.72,796c6.66,19.95,12.09,37.9,16.29,54.91h.63c4.25-16.51,9.91-34.47,17.13-54.9l28.86-78.9h26.72l10,163h-20.55Z" transform="translate(-127.22 -35.05)"/><path class="cls-1" d="M2271.27,828.84l-16.72,51.22h-21.67l55-163h25.13l55.26,163H2346l-17.33-51.22Zm53.14-16.46-16-46.9c-3.51-10.67-5.94-20.38-8.34-29.74h-.56c-2.32,9.53-4.84,19.48-8,29.45l-15.95,47.19Z" transform="translate(-127.22 -35.05)"/><path class="cls-1" d="M2391.94,717.08h21V862.3h69.18v17.76h-90.19Z" transform="translate(-127.22 -35.05)"/><path class="cls-1" d="M2502.55,854.41A72.41,72.41,0,0,0,2539.89,865c21.37,0,33.94-11.24,33.94-27.75,0-15.11-8.78-24-30.61-32.25-26.41-9.44-42.79-23.43-42.79-46.23,0-25.37,20.94-44.2,52.46-44.2,16.43,0,28.64,3.84,35.69,7.87l-5.83,17.26c-5.16-3.08-16-7.74-30.56-7.74-22.22,0-30.62,13.27-30.62,24.38,0,15.13,9.84,22.59,32.18,31.29,27.45,10.84,41.27,24.11,41.27,48,0,25-18.28,47-56.62,47-15.65,0-32.71-4.76-41.35-10.63Z" transform="translate(-127.22 -35.05)"/></svg>